<mxfile host="65bd71144e">
    <diagram id="-yFY0TsZixoVtVSx_27P" name="PÃ¡gina-1">
        <mxGraphModel dx="1622" dy="973" grid="1" gridSize="10" guides="1" tooltips="1" connect="1" arrows="1" fold="1" page="1" pageScale="1" pageWidth="827" pageHeight="1169" math="0" shadow="0">
            <root>
                <mxCell id="0"/>
                <mxCell id="1" parent="0"/>
                <mxCell id="IRT4CBcJnTFuYYY-pWU2-63" style="edgeStyle=orthogonalEdgeStyle;rounded=0;orthogonalLoop=1;jettySize=auto;html=1;" parent="1" source="IRT4CBcJnTFuYYY-pWU2-1" target="IRT4CBcJnTFuYYY-pWU2-12" edge="1">
                    <mxGeometry relative="1" as="geometry">
                        <Array as="points">
                            <mxPoint x="150" y="169"/>
                        </Array>
                    </mxGeometry>
                </mxCell>
                <mxCell id="IRT4CBcJnTFuYYY-pWU2-1" value="usuarios" style="swimlane;fontStyle=0;childLayout=stackLayout;horizontal=1;startSize=26;fillColor=none;horizontalStack=0;resizeParent=1;resizeParentMax=0;resizeLast=0;collapsible=1;marginBottom=0;" parent="1" vertex="1">
                    <mxGeometry x="60" y="221" width="140" height="182" as="geometry"/>
                </mxCell>
                <mxCell id="IRT4CBcJnTFuYYY-pWU2-2" value="id" style="text;strokeColor=none;fillColor=none;align=left;verticalAlign=top;spacingLeft=4;spacingRight=4;overflow=hidden;rotatable=0;points=[[0,0.5],[1,0.5]];portConstraint=eastwest;" parent="IRT4CBcJnTFuYYY-pWU2-1" vertex="1">
                    <mxGeometry y="26" width="140" height="26" as="geometry"/>
                </mxCell>
                <mxCell id="IRT4CBcJnTFuYYY-pWU2-3" value="nombre_completo" style="text;strokeColor=none;fillColor=none;align=left;verticalAlign=top;spacingLeft=4;spacingRight=4;overflow=hidden;rotatable=0;points=[[0,0.5],[1,0.5]];portConstraint=eastwest;" parent="IRT4CBcJnTFuYYY-pWU2-1" vertex="1">
                    <mxGeometry y="52" width="140" height="26" as="geometry"/>
                </mxCell>
                <mxCell id="IRT4CBcJnTFuYYY-pWU2-5" value="correo" style="text;strokeColor=none;fillColor=none;align=left;verticalAlign=top;spacingLeft=4;spacingRight=4;overflow=hidden;rotatable=0;points=[[0,0.5],[1,0.5]];portConstraint=eastwest;" parent="IRT4CBcJnTFuYYY-pWU2-1" vertex="1">
                    <mxGeometry y="78" width="140" height="26" as="geometry"/>
                </mxCell>
                <mxCell id="IRT4CBcJnTFuYYY-pWU2-4" value="legajo" style="text;strokeColor=none;fillColor=none;align=left;verticalAlign=top;spacingLeft=4;spacingRight=4;overflow=hidden;rotatable=0;points=[[0,0.5],[1,0.5]];portConstraint=eastwest;" parent="IRT4CBcJnTFuYYY-pWU2-1" vertex="1">
                    <mxGeometry y="104" width="140" height="26" as="geometry"/>
                </mxCell>
                <mxCell id="IRT4CBcJnTFuYYY-pWU2-16" value="contrasenia" style="text;strokeColor=none;fillColor=none;align=left;verticalAlign=top;spacingLeft=4;spacingRight=4;overflow=hidden;rotatable=0;points=[[0,0.5],[1,0.5]];portConstraint=eastwest;" parent="IRT4CBcJnTFuYYY-pWU2-1" vertex="1">
                    <mxGeometry y="130" width="140" height="26" as="geometry"/>
                </mxCell>
                <mxCell id="IRT4CBcJnTFuYYY-pWU2-6" value="tipo_id" style="text;strokeColor=none;fillColor=none;align=left;verticalAlign=top;spacingLeft=4;spacingRight=4;overflow=hidden;rotatable=0;points=[[0,0.5],[1,0.5]];portConstraint=eastwest;" parent="IRT4CBcJnTFuYYY-pWU2-1" vertex="1">
                    <mxGeometry y="156" width="140" height="26" as="geometry"/>
                </mxCell>
                <mxCell id="IRT4CBcJnTFuYYY-pWU2-7" value="materia" style="swimlane;fontStyle=0;childLayout=stackLayout;horizontal=1;startSize=26;fillColor=none;horizontalStack=0;resizeParent=1;resizeParentMax=0;resizeLast=0;collapsible=1;marginBottom=0;" parent="1" vertex="1">
                    <mxGeometry x="670" y="90" width="140" height="78" as="geometry"/>
                </mxCell>
                <mxCell id="IRT4CBcJnTFuYYY-pWU2-10" value="id" style="text;strokeColor=none;fillColor=none;align=left;verticalAlign=top;spacingLeft=4;spacingRight=4;overflow=hidden;rotatable=0;points=[[0,0.5],[1,0.5]];portConstraint=eastwest;" parent="IRT4CBcJnTFuYYY-pWU2-7" vertex="1">
                    <mxGeometry y="26" width="140" height="26" as="geometry"/>
                </mxCell>
                <mxCell id="IRT4CBcJnTFuYYY-pWU2-8" value="nombre" style="text;strokeColor=none;fillColor=none;align=left;verticalAlign=top;spacingLeft=4;spacingRight=4;overflow=hidden;rotatable=0;points=[[0,0.5],[1,0.5]];portConstraint=eastwest;" parent="IRT4CBcJnTFuYYY-pWU2-7" vertex="1">
                    <mxGeometry y="52" width="140" height="26" as="geometry"/>
                </mxCell>
                <mxCell id="IRT4CBcJnTFuYYY-pWU2-12" value="usuarios_tipos" style="swimlane;fontStyle=0;childLayout=stackLayout;horizontal=1;startSize=26;fillColor=none;horizontalStack=0;resizeParent=1;resizeParentMax=0;resizeLast=0;collapsible=1;marginBottom=0;" parent="1" vertex="1">
                    <mxGeometry x="60" y="96" width="140" height="78" as="geometry"/>
                </mxCell>
                <mxCell id="IRT4CBcJnTFuYYY-pWU2-14" value="id" style="text;strokeColor=none;fillColor=none;align=left;verticalAlign=top;spacingLeft=4;spacingRight=4;overflow=hidden;rotatable=0;points=[[0,0.5],[1,0.5]];portConstraint=eastwest;" parent="IRT4CBcJnTFuYYY-pWU2-12" vertex="1">
                    <mxGeometry y="26" width="140" height="26" as="geometry"/>
                </mxCell>
                <mxCell id="IRT4CBcJnTFuYYY-pWU2-13" value="descripcion" style="text;strokeColor=none;fillColor=none;align=left;verticalAlign=top;spacingLeft=4;spacingRight=4;overflow=hidden;rotatable=0;points=[[0,0.5],[1,0.5]];portConstraint=eastwest;" parent="IRT4CBcJnTFuYYY-pWU2-12" vertex="1">
                    <mxGeometry y="52" width="140" height="26" as="geometry"/>
                </mxCell>
                <mxCell id="IRT4CBcJnTFuYYY-pWU2-17" value="comision" style="swimlane;fontStyle=0;childLayout=stackLayout;horizontal=1;startSize=26;fillColor=none;horizontalStack=0;resizeParent=1;resizeParentMax=0;resizeLast=0;collapsible=1;marginBottom=0;" parent="1" vertex="1">
                    <mxGeometry x="670" y="460" width="140" height="78" as="geometry"/>
                </mxCell>
                <mxCell id="IRT4CBcJnTFuYYY-pWU2-18" value="id" style="text;strokeColor=none;fillColor=none;align=left;verticalAlign=top;spacingLeft=4;spacingRight=4;overflow=hidden;rotatable=0;points=[[0,0.5],[1,0.5]];portConstraint=eastwest;" parent="IRT4CBcJnTFuYYY-pWU2-17" vertex="1">
                    <mxGeometry y="26" width="140" height="26" as="geometry"/>
                </mxCell>
                <mxCell id="IRT4CBcJnTFuYYY-pWU2-19" value="numero" style="text;strokeColor=none;fillColor=none;align=left;verticalAlign=top;spacingLeft=4;spacingRight=4;overflow=hidden;rotatable=0;points=[[0,0.5],[1,0.5]];portConstraint=eastwest;" parent="IRT4CBcJnTFuYYY-pWU2-17" vertex="1">
                    <mxGeometry y="52" width="140" height="26" as="geometry"/>
                </mxCell>
                <mxCell id="IRT4CBcJnTFuYYY-pWU2-58" style="edgeStyle=orthogonalEdgeStyle;rounded=0;orthogonalLoop=1;jettySize=auto;html=1;" parent="1" source="IRT4CBcJnTFuYYY-pWU2-25" target="IRT4CBcJnTFuYYY-pWU2-7" edge="1">
                    <mxGeometry relative="1" as="geometry"/>
                </mxCell>
                <mxCell id="IRT4CBcJnTFuYYY-pWU2-90" style="edgeStyle=orthogonalEdgeStyle;rounded=0;orthogonalLoop=1;jettySize=auto;html=1;" parent="1" source="IRT4CBcJnTFuYYY-pWU2-25" target="IRT4CBcJnTFuYYY-pWU2-17" edge="1">
                    <mxGeometry relative="1" as="geometry"/>
                </mxCell>
                <mxCell id="IRT4CBcJnTFuYYY-pWU2-25" value="materia_x_comision" style="swimlane;fontStyle=0;childLayout=stackLayout;horizontal=1;startSize=26;fillColor=none;horizontalStack=0;resizeParent=1;resizeParentMax=0;resizeLast=0;collapsible=1;marginBottom=0;" parent="1" vertex="1">
                    <mxGeometry x="670" y="221" width="140" height="104" as="geometry"/>
                </mxCell>
                <mxCell id="IRT4CBcJnTFuYYY-pWU2-53" value="id" style="text;strokeColor=none;fillColor=none;align=left;verticalAlign=top;spacingLeft=4;spacingRight=4;overflow=hidden;rotatable=0;points=[[0,0.5],[1,0.5]];portConstraint=eastwest;" parent="IRT4CBcJnTFuYYY-pWU2-25" vertex="1">
                    <mxGeometry y="26" width="140" height="26" as="geometry"/>
                </mxCell>
                <mxCell id="IRT4CBcJnTFuYYY-pWU2-26" value="materia_id" style="text;strokeColor=none;fillColor=none;align=left;verticalAlign=top;spacingLeft=4;spacingRight=4;overflow=hidden;rotatable=0;points=[[0,0.5],[1,0.5]];portConstraint=eastwest;" parent="IRT4CBcJnTFuYYY-pWU2-25" vertex="1">
                    <mxGeometry y="52" width="140" height="26" as="geometry"/>
                </mxCell>
                <mxCell id="IRT4CBcJnTFuYYY-pWU2-27" value="comision_id" style="text;strokeColor=none;fillColor=none;align=left;verticalAlign=top;spacingLeft=4;spacingRight=4;overflow=hidden;rotatable=0;points=[[0,0.5],[1,0.5]];portConstraint=eastwest;" parent="IRT4CBcJnTFuYYY-pWU2-25" vertex="1">
                    <mxGeometry y="78" width="140" height="26" as="geometry"/>
                </mxCell>
                <mxCell id="IRT4CBcJnTFuYYY-pWU2-62" style="edgeStyle=orthogonalEdgeStyle;rounded=0;orthogonalLoop=1;jettySize=auto;html=1;" parent="1" source="IRT4CBcJnTFuYYY-pWU2-46" target="IRT4CBcJnTFuYYY-pWU2-1" edge="1">
                    <mxGeometry relative="1" as="geometry"/>
                </mxCell>
                <mxCell id="IRT4CBcJnTFuYYY-pWU2-91" style="edgeStyle=orthogonalEdgeStyle;rounded=0;orthogonalLoop=1;jettySize=auto;html=1;" parent="1" source="IRT4CBcJnTFuYYY-pWU2-46" target="IRT4CBcJnTFuYYY-pWU2-25" edge="1">
                    <mxGeometry relative="1" as="geometry">
                        <Array as="points">
                            <mxPoint x="640" y="312"/>
                            <mxPoint x="640" y="312"/>
                        </Array>
                    </mxGeometry>
                </mxCell>
                <mxCell id="IRT4CBcJnTFuYYY-pWU2-46" value="consultas" style="swimlane;fontStyle=0;childLayout=stackLayout;horizontal=1;startSize=26;fillColor=none;horizontalStack=0;resizeParent=1;resizeParentMax=0;resizeLast=0;collapsible=1;marginBottom=0;" parent="1" vertex="1">
                    <mxGeometry x="390" y="208" width="140" height="208" as="geometry"/>
                </mxCell>
                <mxCell id="IRT4CBcJnTFuYYY-pWU2-48" value="id" style="text;strokeColor=none;fillColor=none;align=left;verticalAlign=top;spacingLeft=4;spacingRight=4;overflow=hidden;rotatable=0;points=[[0,0.5],[1,0.5]];portConstraint=eastwest;" parent="IRT4CBcJnTFuYYY-pWU2-46" vertex="1">
                    <mxGeometry y="26" width="140" height="26" as="geometry"/>
                </mxCell>
                <mxCell id="IRT4CBcJnTFuYYY-pWU2-47" value="materia_x_comision_id" style="text;strokeColor=none;fillColor=none;align=left;verticalAlign=top;spacingLeft=4;spacingRight=4;overflow=hidden;rotatable=0;points=[[0,0.5],[1,0.5]];portConstraint=eastwest;" parent="IRT4CBcJnTFuYYY-pWU2-46" vertex="1">
                    <mxGeometry y="52" width="140" height="26" as="geometry"/>
                </mxCell>
                <mxCell id="IRT4CBcJnTFuYYY-pWU2-54" value="profesor_id" style="text;strokeColor=none;fillColor=none;align=left;verticalAlign=top;spacingLeft=4;spacingRight=4;overflow=hidden;rotatable=0;points=[[0,0.5],[1,0.5]];portConstraint=eastwest;" parent="IRT4CBcJnTFuYYY-pWU2-46" vertex="1">
                    <mxGeometry y="78" width="140" height="26" as="geometry"/>
                </mxCell>
                <mxCell id="IRT4CBcJnTFuYYY-pWU2-55" value="hora_hasta" style="text;strokeColor=none;fillColor=none;align=left;verticalAlign=top;spacingLeft=4;spacingRight=4;overflow=hidden;rotatable=0;points=[[0,0.5],[1,0.5]];portConstraint=eastwest;" parent="IRT4CBcJnTFuYYY-pWU2-46" vertex="1">
                    <mxGeometry y="104" width="140" height="26" as="geometry"/>
                </mxCell>
                <mxCell id="IRT4CBcJnTFuYYY-pWU2-43" value="aula" style="text;strokeColor=none;fillColor=none;align=left;verticalAlign=top;spacingLeft=4;spacingRight=4;overflow=hidden;rotatable=0;points=[[0,0.5],[1,0.5]];portConstraint=eastwest;" parent="IRT4CBcJnTFuYYY-pWU2-46" vertex="1">
                    <mxGeometry y="130" width="140" height="26" as="geometry"/>
                </mxCell>
                <mxCell id="IRT4CBcJnTFuYYY-pWU2-83" value="hora_desde" style="text;strokeColor=none;fillColor=none;align=left;verticalAlign=top;spacingLeft=4;spacingRight=4;overflow=hidden;rotatable=0;points=[[0,0.5],[1,0.5]];portConstraint=eastwest;" parent="IRT4CBcJnTFuYYY-pWU2-46" vertex="1">
                    <mxGeometry y="156" width="140" height="26" as="geometry"/>
                </mxCell>
                <mxCell id="IRT4CBcJnTFuYYY-pWU2-42" value="dia_de_la_semana" style="text;strokeColor=none;fillColor=none;align=left;verticalAlign=top;spacingLeft=4;spacingRight=4;overflow=hidden;rotatable=0;points=[[0,0.5],[1,0.5]];portConstraint=eastwest;" parent="IRT4CBcJnTFuYYY-pWU2-46" vertex="1">
                    <mxGeometry y="182" width="140" height="26" as="geometry"/>
                </mxCell>
                <mxCell id="IRT4CBcJnTFuYYY-pWU2-101" style="edgeStyle=orthogonalEdgeStyle;rounded=0;orthogonalLoop=1;jettySize=auto;html=1;" parent="1" source="IRT4CBcJnTFuYYY-pWU2-67" target="IRT4CBcJnTFuYYY-pWU2-97" edge="1">
                    <mxGeometry relative="1" as="geometry">
                        <Array as="points">
                            <mxPoint x="320" y="800"/>
                            <mxPoint x="320" y="800"/>
                        </Array>
                    </mxGeometry>
                </mxCell>
                <mxCell id="IRT4CBcJnTFuYYY-pWU2-67" value="instancias" style="swimlane;fontStyle=0;childLayout=stackLayout;horizontal=1;startSize=26;fillColor=none;horizontalStack=0;resizeParent=1;resizeParentMax=0;resizeLast=0;collapsible=1;marginBottom=0;" parent="1" vertex="1">
                    <mxGeometry x="250" y="550" width="140" height="234" as="geometry"/>
                </mxCell>
                <mxCell id="IRT4CBcJnTFuYYY-pWU2-84" value="aula_nueva NULL" style="text;strokeColor=none;fillColor=none;align=left;verticalAlign=top;spacingLeft=4;spacingRight=4;overflow=hidden;rotatable=0;points=[[0,0.5],[1,0.5]];portConstraint=eastwest;" parent="IRT4CBcJnTFuYYY-pWU2-67" vertex="1">
                    <mxGeometry y="26" width="140" height="26" as="geometry"/>
                </mxCell>
                <mxCell id="IRT4CBcJnTFuYYY-pWU2-69" value="fecha" style="text;strokeColor=none;fillColor=none;align=left;verticalAlign=top;spacingLeft=4;spacingRight=4;overflow=hidden;rotatable=0;points=[[0,0.5],[1,0.5]];portConstraint=eastwest;" parent="IRT4CBcJnTFuYYY-pWU2-67" vertex="1">
                    <mxGeometry y="52" width="140" height="26" as="geometry"/>
                </mxCell>
                <mxCell id="IRT4CBcJnTFuYYY-pWU2-79" value="motivo NULL" style="text;strokeColor=none;fillColor=none;align=left;verticalAlign=top;spacingLeft=4;spacingRight=4;overflow=hidden;rotatable=0;points=[[0,0.5],[1,0.5]];portConstraint=eastwest;" parent="IRT4CBcJnTFuYYY-pWU2-67" vertex="1">
                    <mxGeometry y="78" width="140" height="26" as="geometry"/>
                </mxCell>
                <mxCell id="IRT4CBcJnTFuYYY-pWU2-85" value="hora_nueva NULL" style="text;strokeColor=none;fillColor=none;align=left;verticalAlign=top;spacingLeft=4;spacingRight=4;overflow=hidden;rotatable=0;points=[[0,0.5],[1,0.5]];portConstraint=eastwest;" parent="IRT4CBcJnTFuYYY-pWU2-67" vertex="1">
                    <mxGeometry y="104" width="140" height="26" as="geometry"/>
                </mxCell>
                <mxCell id="IRT4CBcJnTFuYYY-pWU2-82" value="cupo" style="text;strokeColor=none;fillColor=none;align=left;verticalAlign=top;spacingLeft=4;spacingRight=4;overflow=hidden;rotatable=0;points=[[0,0.5],[1,0.5]];portConstraint=eastwest;" parent="IRT4CBcJnTFuYYY-pWU2-67" vertex="1">
                    <mxGeometry y="130" width="140" height="26" as="geometry"/>
                </mxCell>
                <mxCell id="IRT4CBcJnTFuYYY-pWU2-92" value="enlace NULL" style="text;strokeColor=none;fillColor=none;align=left;verticalAlign=top;spacingLeft=4;spacingRight=4;overflow=hidden;rotatable=0;points=[[0,0.5],[1,0.5]];portConstraint=eastwest;" parent="IRT4CBcJnTFuYYY-pWU2-67" vertex="1">
                    <mxGeometry y="156" width="140" height="26" as="geometry"/>
                </mxCell>
                <mxCell id="IRT4CBcJnTFuYYY-pWU2-95" value="estado_id" style="text;strokeColor=none;fillColor=none;align=left;verticalAlign=top;spacingLeft=4;spacingRight=4;overflow=hidden;rotatable=0;points=[[0,0.5],[1,0.5]];portConstraint=eastwest;" parent="IRT4CBcJnTFuYYY-pWU2-67" vertex="1">
                    <mxGeometry y="182" width="140" height="26" as="geometry"/>
                </mxCell>
                <mxCell id="IRT4CBcJnTFuYYY-pWU2-70" value="consulta_id" style="text;strokeColor=none;fillColor=none;align=left;verticalAlign=top;spacingLeft=4;spacingRight=4;overflow=hidden;rotatable=0;points=[[0,0.5],[1,0.5]];portConstraint=eastwest;" parent="IRT4CBcJnTFuYYY-pWU2-67" vertex="1">
                    <mxGeometry y="208" width="140" height="26" as="geometry"/>
                </mxCell>
                <mxCell id="IRT4CBcJnTFuYYY-pWU2-77" style="edgeStyle=orthogonalEdgeStyle;rounded=0;orthogonalLoop=1;jettySize=auto;html=1;" parent="1" source="IRT4CBcJnTFuYYY-pWU2-71" target="IRT4CBcJnTFuYYY-pWU2-67" edge="1">
                    <mxGeometry relative="1" as="geometry"/>
                </mxCell>
                <mxCell id="IRT4CBcJnTFuYYY-pWU2-86" value="" style="edgeStyle=orthogonalEdgeStyle;rounded=0;orthogonalLoop=1;jettySize=auto;html=1;" parent="1" source="IRT4CBcJnTFuYYY-pWU2-71" target="IRT4CBcJnTFuYYY-pWU2-6" edge="1">
                    <mxGeometry relative="1" as="geometry">
                        <Array as="points">
                            <mxPoint x="130" y="510"/>
                            <mxPoint x="130" y="510"/>
                        </Array>
                    </mxGeometry>
                </mxCell>
                <mxCell id="IRT4CBcJnTFuYYY-pWU2-71" value="subscripciones" style="swimlane;fontStyle=0;childLayout=stackLayout;horizontal=1;startSize=26;fillColor=none;horizontalStack=0;resizeParent=1;resizeParentMax=0;resizeLast=0;collapsible=1;marginBottom=0;" parent="1" vertex="1">
                    <mxGeometry x="50" y="628" width="140" height="78" as="geometry"/>
                </mxCell>
                <mxCell id="IRT4CBcJnTFuYYY-pWU2-72" value="instancia_id" style="text;strokeColor=none;fillColor=none;align=left;verticalAlign=top;spacingLeft=4;spacingRight=4;overflow=hidden;rotatable=0;points=[[0,0.5],[1,0.5]];portConstraint=eastwest;" parent="IRT4CBcJnTFuYYY-pWU2-71" vertex="1">
                    <mxGeometry y="26" width="140" height="26" as="geometry"/>
                </mxCell>
                <mxCell id="IRT4CBcJnTFuYYY-pWU2-73" value="usuario_id" style="text;strokeColor=none;fillColor=none;align=left;verticalAlign=top;spacingLeft=4;spacingRight=4;overflow=hidden;rotatable=0;points=[[0,0.5],[1,0.5]];portConstraint=eastwest;" parent="IRT4CBcJnTFuYYY-pWU2-71" vertex="1">
                    <mxGeometry y="52" width="140" height="26" as="geometry"/>
                </mxCell>
                <mxCell id="IRT4CBcJnTFuYYY-pWU2-94" style="edgeStyle=orthogonalEdgeStyle;rounded=0;orthogonalLoop=1;jettySize=auto;html=1;" parent="1" source="IRT4CBcJnTFuYYY-pWU2-84" target="IRT4CBcJnTFuYYY-pWU2-46" edge="1">
                    <mxGeometry relative="1" as="geometry">
                        <Array as="points">
                            <mxPoint x="460" y="590"/>
                        </Array>
                    </mxGeometry>
                </mxCell>
                <mxCell id="IRT4CBcJnTFuYYY-pWU2-96" value="&lt;div&gt;El alumno solicita una consulta a partir de los horarios&lt;/div&gt;&lt;div&gt;disponibles definidos en &lt;b&gt;consultas&lt;/b&gt;. El sistema le muestra las&lt;/div&gt;&lt;div&gt;&lt;b&gt;instancias &lt;/b&gt;como si estuvieran creadas y &quot;Pendiente&quot;.&lt;br&gt;&lt;/div&gt;&lt;div&gt;Si la &lt;b&gt;instancia &lt;/b&gt;no estÃ¡ creada, se crea con &lt;i&gt;estado&lt;/i&gt;&lt;/div&gt;&lt;div&gt;&quot;Pendiente&quot; y se &lt;b&gt;suscribe &lt;/b&gt;al alumno.&lt;/div&gt;&lt;div&gt;Si otro alumno intenta suscribirse a una consulta con instancia&lt;/div&gt;&lt;div&gt;sin confirmar, el sistema actua como si estuviera confirmada y&lt;/div&gt;&lt;div&gt;solo se lo suscribe.&lt;/div&gt;&lt;div&gt;El profesor recibe un correo solo cuando se crea la &lt;b&gt;instancia&lt;/b&gt;.&lt;/div&gt;&lt;div&gt;Cuando el profesor confirma la instancia, todos los estudiantes&lt;/div&gt;&lt;div&gt;&lt;b&gt;suscritos &lt;/b&gt;reciben una notificaciÃ³n por correo.&lt;/div&gt;&lt;div&gt;Si todos los estudiantes se desuscriben (&quot;cancelan&quot;, segun el&lt;/div&gt;&lt;div&gt;enunciado) se elimina la instancia. Si uno solo la &quot;cancela&quot;, solo&lt;/div&gt;&lt;div&gt;se desuscribe.&lt;/div&gt;&lt;div&gt;El profesor es avisado si no hay estudiantes suscritos / se elimina la&lt;/div&gt;&lt;div&gt;instancia.&lt;/div&gt;&lt;div&gt;Los estudiantes son avisados si el profesor cancela / modifica ciertos&lt;/div&gt;&lt;div&gt;parÃ¡metros de la consulta.&lt;br&gt;&lt;/div&gt;" style="text;html=1;align=left;verticalAlign=middle;resizable=0;points=[];autosize=1;strokeColor=none;fillColor=none;" parent="1" vertex="1">
                    <mxGeometry x="400" y="600" width="410" height="270" as="geometry"/>
                </mxCell>
                <mxCell id="IRT4CBcJnTFuYYY-pWU2-97" value="instancias_estados" style="swimlane;fontStyle=0;childLayout=stackLayout;horizontal=1;startSize=26;fillColor=none;horizontalStack=0;resizeParent=1;resizeParentMax=0;resizeLast=0;collapsible=1;marginBottom=0;" parent="1" vertex="1">
                    <mxGeometry x="250" y="840" width="140" height="78" as="geometry"/>
                </mxCell>
                <mxCell id="IRT4CBcJnTFuYYY-pWU2-98" value="id" style="text;strokeColor=none;fillColor=none;align=left;verticalAlign=top;spacingLeft=4;spacingRight=4;overflow=hidden;rotatable=0;points=[[0,0.5],[1,0.5]];portConstraint=eastwest;" parent="IRT4CBcJnTFuYYY-pWU2-97" vertex="1">
                    <mxGeometry y="26" width="140" height="26" as="geometry"/>
                </mxCell>
                <mxCell id="IRT4CBcJnTFuYYY-pWU2-99" value="descripcion" style="text;strokeColor=none;fillColor=none;align=left;verticalAlign=top;spacingLeft=4;spacingRight=4;overflow=hidden;rotatable=0;points=[[0,0.5],[1,0.5]];portConstraint=eastwest;" parent="IRT4CBcJnTFuYYY-pWU2-97" vertex="1">
                    <mxGeometry y="52" width="140" height="26" as="geometry"/>
                </mxCell>
                <mxCell id="IRT4CBcJnTFuYYY-pWU2-102" value="&lt;div&gt;Pendiente&lt;/div&gt;&lt;div&gt;Confimada&lt;/div&gt;&lt;div&gt;Bloqueado por profesor&lt;br&gt;&lt;/div&gt;" style="text;html=1;align=left;verticalAlign=middle;resizable=0;points=[];autosize=1;strokeColor=none;fillColor=none;" parent="1" vertex="1">
                    <mxGeometry x="100" y="819" width="150" height="60" as="geometry"/>
                </mxCell>
                <mxCell id="IRT4CBcJnTFuYYY-pWU2-103" value="1) Estudiante&lt;div&gt;2) Profesor&lt;/div&gt;&lt;div&gt;3) AdministaciÃ³n&lt;br&gt;&lt;/div&gt;" style="text;html=1;align=left;verticalAlign=middle;resizable=0;points=[];autosize=1;strokeColor=none;fillColor=none;" parent="1" vertex="1">
                    <mxGeometry x="70" y="30" width="120" height="60" as="geometry"/>
                </mxCell>
                <mxCell id="IRT4CBcJnTFuYYY-pWU2-105" value="&lt;div&gt;Motivo es de bloqueo o cambio de hora.&lt;/div&gt;&lt;div&gt;El alumno no ve esto.&lt;br&gt;&lt;/div&gt;" style="text;html=1;align=center;verticalAlign=middle;resizable=0;points=[];autosize=1;strokeColor=none;fillColor=none;" parent="1" vertex="1">
                    <mxGeometry x="174" y="510" width="240" height="40" as="geometry"/>
                </mxCell>
            </root>
        </mxGraphModel>
    </diagram>
</mxfile>